# xmcd
#
# Track frame offsets: 
#        150
#        13118
#        27515
#        40390
#        53323
#        64490
#        76480
#        89520
#        116250
#        130900
#        142643
#        154528
#        167998
#        178565
#        187980
#        201688
#        215635
#        227765
#        240145
#        256033
#
# Disc length: 3630 seconds
#
# Revision: 4
# Processed by: cddbd v1.5.2PL0 Copyright (c) Steve Scherf et al.
# Submitted via: ExactAudioCopy v0.90b4
#
DISCID=0a0e2c14
DTITLE=Various Artist - Motown's Blue Evolution
DYEAR=1996
DGENRE=R&B
TTITLE0=Sammy Ward - Who's The Fool
TTITLE1=Mable John - Take Me
TTITLE2=Sammy Ward - Part Time Love
TTITLE3=Mable John - Actions Speak Louder Than Words
TTITLE4=Sammy Ward - What Makes You Love Him
TTITLE5=Mable John - I Guess There's No Love
TTITLE6=Sammy Ward - Bread Winner
TTITLE7=Sammy Ward - Someday Pretty Baby
TTITLE8=Amos Milburn - It's A Long, Long Time
TTITLE9=Amos Milburn - I'm In My Wine
TTITLE10=Amus Milburn - Hold Me Baby
TTITLE11=Earl King - Three Knocks On My Door
TTITLE12=Earl King - A Man And A Book
TTITLE13=Earl King - Hunger Pains
TTITLE14=Sammy Ward - Then You Changed
TTITLE15=Arthur Adams - Cold Cold Heart
TTITLE16=Arthurn Adams - Let Me Love You Tonight
TTITLE17=Luther Allison - Dust My Broom
TTITLE18=Luther Allison - Into My Life
TTITLE19=Luther Allison - I Can Make It Thru The Day (But Oh Those Lon
TTITLE19=ely Nights)
EXTD=
EXTT0=
EXTT1=
EXTT2=
EXTT3=
EXTT4=
EXTT5=
EXTT6=
EXTT7=
EXTT8=
EXTT9=
EXTT10=
EXTT11=
EXTT12=
EXTT13=
EXTT14=
EXTT15=
EXTT16=
EXTT17=
EXTT18=
EXTT19=
PLAYORDER=
